<svg width="88" height="102" viewBox="0 0 88 102" fill="none" xmlns="http://www.w3.org/2000/svg">
<path d="M29.8571 12.75H58.1429V4.78125C58.1429 2.1416 60.2446 0 62.8571 0C65.4696 0 67.5714 2.1416 67.5714 4.78125V12.75H75.4286C82.3625 12.75 88 18.4576 88 25.5V89.25C88 96.2824 82.3625 102 75.4286 102H12.5714C5.62768 102 0 96.2824 0 89.25V25.5C0 18.4576 5.62768 12.75 12.5714 12.75H20.4286V4.78125C20.4286 2.1416 22.5304 0 25.1429 0C27.7554 0 29.8571 2.1416 29.8571 4.78125V12.75ZM9.42857 89.25C9.42857 91.0031 10.835 92.4375 12.5714 92.4375H75.4286C77.1571 92.4375 78.5714 91.0031 78.5714 89.25V38.25H9.42857V89.25Z" fill="black"/>
</svg>
