<svg width="27" height="22" viewBox="0 0 27 22" fill="none" xmlns="http://www.w3.org/2000/svg">
<g clip-path="url(#clip0_48_44)">
<path d="M4.77031 8.70723C4.76503 8.59648 4.76218 8.48574 4.76218 8.375C4.76218 4.74922 7.67093 1.8125 11.2622 1.8125C13.6712 1.8125 15.7716 3.13525 16.8969 5.10195C17.5144 4.64668 18.2619 4.4375 19.0622 4.4375C21.2153 4.4375 22.9622 6.16426 22.9622 8.375C22.9622 8.87539 22.8687 9.35117 22.7022 9.79414C25.0747 10.2781 26.8622 12.3986 26.8622 14.9375C26.8622 17.8373 24.5344 20.1875 21.6622 20.1875H6.71218C3.48128 20.1875 0.862183 17.542 0.862183 14.2812C0.862183 11.7055 2.49409 9.51523 4.77031 8.70723Z" fill="black"/>
</g>
<defs>
<clipPath id="clip0_48_44">
<rect width="26" height="21" fill="white" transform="translate(0.862183 0.5)"/>
</clipPath>
</defs>
</svg>
