<svg width="27" height="22" viewBox="0 0 27 22" fill="none" xmlns="http://www.w3.org/2000/svg">
<g clip-path="url(#clip0_45_44)">
<path d="M4.76219 9.0312C4.76219 6.49397 6.79913 4.47436 9.27563 4.47436C11.4145 4.47436 13.1959 5.96938 13.6834 7.97791C14.4594 7.59975 15.2719 7.39057 16.1006 7.39057C16.2878 7.39057 16.4724 7.40619 16.6564 7.42421L17.6367 5.99851C17.8457 5.69442 17.6731 5.27377 17.3123 5.20814L13.7484 4.55147L13.0984 0.918713C13.0334 0.554289 12.6191 0.380219 12.3144 0.591244L9.31219 2.69592L6.31 0.591203C6.00531 0.380178 5.59094 0.55433 5.52594 0.918713L4.87513 4.55147L1.27697 5.20854C0.916059 5.27416 0.743484 5.69662 0.9525 6.00014L3.03656 9.03284L0.952541 12.0623C0.743525 12.3663 0.91608 12.787 1.27685 12.8526L4.87513 13.5101L5.52553 17.1433C5.5907 17.5075 6.00735 17.6818 6.30838 17.4707L6.74347 17.1658C6.85417 15.7241 7.54988 14.4379 8.60531 13.5523C6.43188 13.2066 4.76219 11.324 4.76219 9.0312ZM6.06219 9.0312C6.06219 10.8433 7.51738 12.3124 9.31219 12.3124C9.70743 12.3124 10.0812 12.2306 10.4318 12.1001C10.7163 10.72 11.469 9.52232 12.5268 8.6778C12.3509 7.03373 10.9859 5.74994 9.31219 5.74994C7.51656 5.74994 6.06219 7.2183 6.06219 9.0312ZM24.2297 13.8546C24.2348 13.7726 24.26 13.7011 24.26 13.6242C24.26 12.173 23.092 10.9992 21.6965 10.9992C21.1838 10.9992 20.7114 11.1529 20.31 11.4093C19.5942 9.81459 18.0147 8.73916 16.1703 8.73916C13.6617 8.73916 11.6203 10.7949 11.6203 13.296C11.6203 13.419 11.6509 13.5316 11.6559 13.6495C9.63973 13.8033 8.0452 15.4845 8.0452 17.5611C7.97563 19.7363 9.7225 21.4999 11.8756 21.4999H22.9256C25.0787 21.4999 26.8256 19.7367 26.8256 17.5629C26.8256 15.8357 25.7531 14.3878 24.2297 13.8546Z" fill="black"/>
</g>
<defs>
<clipPath id="clip0_45_44">
<rect width="26" height="21" fill="white" transform="translate(0.862183 0.5)"/>
</clipPath>
</defs>
</svg>
