<svg width="27" height="24" viewBox="0 0 27 24" fill="none" xmlns="http://www.w3.org/2000/svg">
<g clip-path="url(#clip0_48_160)">
<path d="M16.3313 16.3439C16.5908 15.9116 16.7488 15.4118 16.7488 14.8728C16.7488 13.2893 15.4511 11.9978 13.9005 11.9978C13.1219 11.9978 12.4222 12.3066 11.9031 12.8005C11.1268 11.4699 9.71842 10.5221 8.04377 10.5221C5.6514 10.5221 3.71043 12.4564 3.71043 14.8373C3.71043 14.9271 3.73313 15.0029 3.73877 15.0927C2.04607 15.6767 0.821899 17.2661 0.821899 19.1469C0.861951 21.5279 2.80269 23.5 5.19505 23.5H15.9878C17.9852 23.5 19.5582 21.894 19.5582 19.9062C19.5993 18.024 18.182 16.5012 16.3313 16.3439ZM26.3747 13.9047C22.1768 14.7021 18.3174 11.496 18.3174 7.27422C18.3174 4.83721 19.5858 2.60234 21.7533 1.39395C22.0862 1.20864 21.996 0.714727 21.6292 0.646895C21.1024 0.550537 20.5743 0.5 20.0056 0.5C15.2254 0.5 11.3434 4.35789 11.3434 9.125C11.3434 9.50684 11.3716 9.87744 11.4224 10.248C11.6876 10.439 11.9469 10.6467 12.1785 10.8882C12.6931 10.6748 13.2844 10.5625 13.8215 10.5625C16.2085 10.5625 18.1143 12.5 18.1143 14.875C18.1143 15.0378 18.103 15.2007 18.086 15.3579C19.1522 15.8408 19.9986 16.6831 20.501 17.7163C22.9556 17.5647 25.1819 16.4023 26.6895 14.5552C27.0066 14.2641 26.7493 13.8328 26.3747 13.9047Z" fill="black"/>
</g>
<defs>
<clipPath id="clip0_48_160">
<rect width="26" height="23" fill="white" transform="translate(0.862183 0.5)"/>
</clipPath>
</defs>
</svg>
