<svg width="109" height="88" viewBox="0 0 109 88" fill="none" xmlns="http://www.w3.org/2000/svg">
<g clip-path="url(#clip0_48_99)">
<path d="M17.0621 35.844C17.0621 25.3326 25.5232 16.9657 35.8102 16.9657C44.6949 16.9657 52.0946 23.1593 54.1196 31.4804C57.3427 29.9137 60.7177 29.0471 64.1602 29.0471C64.9376 29.0471 65.7046 29.1119 66.4687 29.1865L70.5406 23.28C71.4089 22.0202 70.6919 20.2775 69.1933 20.0056L54.3896 17.2851L51.6896 2.23516C51.4196 0.7254 49.6983 0.00425193 48.4327 0.8785L35.9621 9.59787L23.4915 0.87833C22.2258 0.00408199 20.5046 0.72557 20.2346 2.23516L17.5312 17.2851L2.58503 20.0073C1.08586 20.2792 0.369007 22.0294 1.23723 23.2868L9.8941 35.8508L1.23739 48.4012C0.369175 49.661 1.08594 51.4038 2.58452 51.6756L17.5312 54.3995L20.2329 69.4512C20.5036 70.9602 22.2343 71.6822 23.4847 70.8075L25.292 69.5446C25.7519 63.5719 28.6417 58.2431 33.0258 54.5745C23.9977 53.1421 17.0621 45.3426 17.0621 35.844ZM22.4621 35.844C22.4621 43.3512 28.5067 49.4378 35.9621 49.4378C37.6039 49.4378 39.1565 49.0986 40.6128 48.5582C41.7944 42.8404 44.921 37.8787 49.3153 34.38C48.5846 27.5688 42.9146 22.2503 35.9621 22.2503C28.5033 22.2503 22.4621 28.3335 22.4621 35.844ZM97.9271 55.8268C97.9482 55.487 98.0528 55.1906 98.0528 54.872C98.0528 48.8602 93.2013 43.997 87.4047 43.997C85.2751 43.997 83.3125 44.6341 81.6453 45.6961C78.6719 39.0895 72.1109 34.6342 64.4497 34.6342C54.0294 34.6342 45.5497 43.1507 45.5497 53.5125C45.5497 54.0223 45.6766 54.4883 45.6977 54.9769C37.3226 55.6141 30.6992 62.5792 30.6992 71.1823C30.4102 80.1936 37.6665 87.5003 46.6102 87.5003H92.5102C101.454 87.5003 108.71 80.1953 108.71 71.1895C108.71 64.0341 104.255 58.0358 97.9271 55.8268Z" fill="black"/>
</g>
<defs>
<clipPath id="clip0_48_99">
<rect width="108" height="87" fill="white" transform="translate(0.862183 0.5)"/>
</clipPath>
</defs>
</svg>
