<svg width="27" height="24" viewBox="0 0 27 24" fill="none" xmlns="http://www.w3.org/2000/svg">
<g clip-path="url(#clip0_48_149)">
<path d="M16.6834 10.6299C16.373 8.95654 14.9117 7.6875 13.1395 7.6875C12.5866 7.6875 12.0616 7.78184 11.5935 8.00645C10.8063 6.96426 9.53336 6.25 8.0844 6.25C5.69159 6.25 3.75062 8.14121 3.75062 10.5221C3.75062 10.5445 3.7619 10.5726 3.7619 10.5951C2.10937 10.9623 0.862183 12.4178 0.862183 14.1562C0.862183 16.144 2.4759 17.7096 4.47375 17.7096H16.0293C18.0267 17.7096 19.6409 16.1036 19.6409 14.1562C19.64 12.3953 18.367 10.9354 16.6834 10.6299ZM26.4966 10.5535C23.3233 11.151 20.4028 8.74316 20.4028 5.57617C20.4028 3.751 21.3904 2.07227 22.9983 1.16799C23.2466 1.02761 23.1823 0.657227 22.9002 0.606465C22.5108 0.533862 22.1136 0.5 21.7073 0.5C18.1919 0.5 15.3382 3.25146 15.1893 6.69473C16.3967 7.2284 17.3677 8.21668 17.847 9.46865C19.5231 10.1088 20.7364 11.5971 21.0185 13.3656C21.2499 13.3881 21.4721 13.434 21.7091 13.434C23.7237 13.434 25.5667 12.5288 26.7873 11.041C26.9795 10.823 26.7809 10.4996 26.4966 10.5535ZM16.2139 19.6682L14.7695 21.8244C14.4379 22.3199 14.5719 22.9897 15.07 23.3194C15.2525 23.4416 15.4601 23.5 15.6271 23.5C15.977 23.5 16.3214 23.3315 16.5299 23.0198L17.9743 20.8635C18.3059 20.368 18.1719 19.6983 17.6738 19.3685C17.216 19.0393 16.5434 19.174 16.2139 19.6682ZM11.8761 19.6682L10.4316 21.8244C10.1001 22.3199 10.2341 22.9897 10.7321 23.3194C10.9191 23.4416 11.1268 23.5 11.2938 23.5C11.6437 23.5 11.988 23.3315 12.1966 23.0198L13.641 20.8635C13.9725 20.368 13.8385 19.6983 13.3405 19.3685C12.8827 19.0393 12.2101 19.174 11.8761 19.6682ZM7.54274 19.6682L6.09829 21.8244C5.76675 22.3199 5.90077 22.9897 6.39878 23.3194C6.58579 23.4416 6.79343 23.5 6.96045 23.5C7.31032 23.5 7.65468 23.3315 7.86322 23.0198L9.30767 20.8635C9.63921 20.368 9.5052 19.6983 9.00718 19.3685C8.54934 19.0393 7.87677 19.174 7.54274 19.6682ZM3.21076 19.6682L1.76631 21.8244C1.43477 22.3199 1.56879 22.9897 2.0668 23.3194C2.25156 23.4416 2.46055 23.5 2.66638 23.5C3.01626 23.5 3.36062 23.3315 3.56916 23.0198L5.01361 20.8635C5.34515 20.368 5.21113 19.6983 4.71312 19.3685C4.21375 19.0393 3.54388 19.174 3.21076 19.6682Z" fill="black"/>
</g>
<defs>
<clipPath id="clip0_48_149">
<rect width="26" height="23" fill="white" transform="translate(0.862183 0.5)"/>
</clipPath>
</defs>
</svg>
