<svg width="27" height="22" viewBox="0 0 27 22" fill="none" xmlns="http://www.w3.org/2000/svg">
<g clip-path="url(#clip0_48_97)">
<path d="M11.25 6.20529C10.8072 5.64747 10.1085 5.25782 9.31223 5.25782C7.96592 5.25782 6.87473 6.3595 6.87473 7.68185C6.87473 8.73021 7.52717 9.61943 8.44204 9.9738C8.87348 9.49474 9.41379 9.06818 10.0394 8.74825C10.1694 7.8213 10.6366 6.95177 11.25 6.20529ZM5.73723 7.68185C5.73723 5.68849 7.33786 4.10939 9.31223 4.10939C10.4416 4.10939 11.4365 4.64833 12.0918 5.47398C12.9547 4.83126 14.0101 4.43628 15.1622 4.43628L13.066 3.9281L12.5175 0.854264C12.4769 0.637251 12.29 0.500025 12.095 0.500025C12.0127 0.500025 11.9286 0.524339 11.8531 0.577175L9.31122 2.35807L6.76911 0.577204C6.69598 0.524314 6.61067 0.5 6.52942 0.5C6.33369 0.5 6.14758 0.637238 6.10895 0.854211L5.55889 3.92833L2.51323 4.48386C2.29837 4.52305 2.16235 4.711 2.16235 4.90878C2.16235 4.99188 2.18641 5.0767 2.23877 5.15287L4.0023 7.71921L2.23861 10.2863C2.1862 10.3602 2.16223 10.4463 2.16223 10.5283C2.16223 10.7259 2.2982 10.9138 2.51307 10.9528L5.55791 11.5082L6.10798 14.5823C6.14679 14.7992 6.33292 14.9365 6.52844 14.9365C6.61079 14.9365 6.69484 14.9122 6.77032 14.8593L7.56129 14.3052C7.43292 13.8811 7.36085 13.4324 7.36085 12.9665C7.36085 12.2622 7.52461 11.5896 7.81341 10.9846C6.59036 10.4135 5.73723 9.17072 5.73723 7.68185ZM22.9013 9.74903C22.622 8.2212 21.3068 7.06251 19.7118 7.06251C19.2142 7.06251 18.7417 7.18556 18.3204 7.39064C17.6095 6.40093 16.4667 5.75001 15.1614 5.75001C13.0083 5.75001 11.261 7.51368 11.261 9.68751C11.261 9.70802 11.2712 9.73365 11.2712 9.75416C9.78348 10.0197 8.62567 11.3774 8.62567 12.9318C8.62567 14.7468 10.078 16.2131 11.8761 16.2131H22.2761C24.1079 16.2131 25.5622 14.7817 25.5622 12.9318C25.5622 11.3568 24.4125 10.0238 22.9013 9.74903ZM23.2872 17.5256C22.9723 17.5256 22.6636 17.6795 22.476 17.9641L21.1759 19.9328C21.065 20.1007 21.0119 20.2904 21.0119 20.4779C21.0122 21.0652 21.455 21.5 21.9872 21.5C22.3021 21.5 22.6112 21.3462 22.7989 21.0616L24.0989 19.0928C24.2099 18.9249 24.2629 18.7352 24.2629 18.5477C24.2622 17.9973 23.8194 17.5256 23.2872 17.5256ZM19.3872 17.5256C19.0723 17.5256 18.764 17.6795 18.5755 17.9641L17.2755 19.9328C17.1646 20.1007 17.1115 20.2904 17.1115 20.4779C17.1122 21.0652 17.555 21.5 18.0507 21.5C18.3655 21.5 18.6747 21.3462 18.8624 21.0616L20.1624 19.0928C20.2733 18.9249 20.3264 18.7352 20.3264 18.5477C20.3622 17.9973 19.9194 17.5256 19.3872 17.5256ZM15.4872 17.5256C15.1723 17.5256 14.864 17.6795 14.676 17.9641L13.3759 19.9328C13.265 20.1007 13.2119 20.2904 13.2119 20.4779C13.2122 21.0652 13.655 21.5 14.1507 21.5C14.4655 21.5 14.7747 21.3462 14.9628 21.0616L16.2628 19.0928C16.3737 18.9249 16.4268 18.7352 16.4268 18.5477C16.4622 17.9973 16.0194 17.5256 15.4872 17.5256ZM11.5872 17.5256C11.2721 17.5256 10.9636 17.6795 10.776 17.9641L9.47595 19.9328C9.365 20.1007 9.31195 20.2904 9.31195 20.4779C9.31223 21.0652 9.75504 21.5 10.2507 21.5C10.5655 21.5 10.8747 21.3462 11.0624 21.0616L12.3624 19.0928C12.4733 18.9249 12.5264 18.7352 12.5264 18.5477C12.5622 17.9973 12.1194 17.5256 11.5872 17.5256Z" fill="black"/>
</g>
<defs>
<clipPath id="clip0_48_97">
<rect width="26" height="21" fill="white" transform="translate(0.862183 0.5)"/>
</clipPath>
</defs>
</svg>
