<svg width="92" height="82" viewBox="0 0 92 82" fill="none" xmlns="http://www.w3.org/2000/svg">
<path d="M76.493 68.1703C77.2149 67.0863 78.4019 66.5 79.6133 66.5C81.6602 66.5 83.3634 68.2969 83.366 70.3938C83.366 71.108 83.1619 71.8308 82.7352 72.4703L77.7352 79.9703C77.0133 81.0547 75.8243 81.6406 74.6133 81.6406C72.5665 81.6406 70.8633 79.9844 70.8623 77.7469C70.8623 77.0327 71.0663 76.3098 71.493 75.6703L76.493 68.1703Z" fill="#3A76BA"/>
<path d="M61.4915 68.1703C62.2165 67.0863 63.4022 66.5 64.6133 66.5C66.6602 66.5 68.3633 68.2969 68.2254 70.3938C68.2254 71.108 68.0213 71.8308 67.5946 72.4703L62.5946 79.9703C61.8727 81.0547 60.6836 81.6406 59.4727 81.6406C57.5665 81.6406 55.8633 79.9844 55.8607 77.7469C55.8607 77.0327 56.0647 76.3098 56.4915 75.6703L61.4915 68.1703Z" fill="#3A76BA"/>
<path d="M46.493 68.1703C47.2165 67.0863 48.4019 66.5 49.6133 66.5C51.6602 66.5 53.3633 68.2969 53.2269 70.3938C53.2269 71.108 53.0229 71.8308 52.5961 72.4703L47.5961 79.9703C46.8727 81.0547 45.6836 81.6406 44.4727 81.6406C42.5665 81.6406 40.8633 79.9844 40.8622 77.7469C40.8622 77.0327 41.0663 76.3098 41.493 75.6703L46.493 68.1703Z" fill="#3A76BA"/>
<path d="M31.493 68.1703C32.2149 67.0863 33.4015 66.5 34.6133 66.5C36.6602 66.5 38.3633 68.2969 38.2254 70.3938C38.2254 71.108 38.0213 71.8308 37.5946 72.4703L32.5946 79.9703C31.8727 81.0547 30.6836 81.6406 29.4727 81.6406C27.5664 81.6406 25.8633 79.9844 25.8622 77.7469C25.8622 77.0327 26.0663 76.3098 26.493 75.6703L31.493 68.1703Z" fill="#3A76BA"/>
<path d="M80.7684 35.7344C79.6942 29.914 74.6357 25.5 68.5013 25.5C66.5872 25.5 64.7701 25.9687 63.1497 26.75C60.4154 22.9797 56.02 20.5 50.9997 20.5C42.7185 20.5 35.9982 27.2187 35.9982 35.5C35.9982 35.5781 36.0372 35.6758 36.0372 35.7539C30.3154 36.7656 25.8622 41.9375 25.8622 47.8594C25.8622 54.7734 31.4482 60.3595 38.3638 60.3595H78.3638C85.4091 60.3595 91.0028 54.9062 91.0028 47.8594C91.0028 41.8594 86.5809 36.7812 80.7684 35.7344Z" fill="#D2DAEE"/>
<path fill-rule="evenodd" clip-rule="evenodd" d="M28.3622 18.625C31.4247 18.625 34.1122 20.1094 35.8153 22.2344C33.4559 25.0782 31.6591 28.3907 31.1591 31.9219C28.7528 33.1407 26.6747 34.7657 25.0153 36.5907C21.4966 35.2407 18.9872 31.8532 18.9872 27.8594C18.9872 22.8219 23.1841 18.625 28.3622 18.625ZM28.3622 14.25C20.7684 14.25 14.6122 20.2657 14.6122 27.8594C14.6122 33.5313 17.8934 38.2657 22.5975 40.4413C21.4867 42.746 20.8569 45.3085 20.8569 47.9913C20.8569 49.7663 21.1341 51.4757 21.6278 53.0913L18.5856 55.2022C18.2953 55.4037 17.972 55.4963 17.6553 55.4963C16.9033 55.4963 16.1874 54.9733 16.0381 54.1469L13.9225 42.436L2.21156 40.3204C1.38515 40.1716 0.862183 39.4558 0.862183 38.7032C0.862183 38.3907 0.95437 38.0626 1.15593 37.7813L7.93937 28.0018L1.15656 18.2252C0.955167 17.935 0.862651 17.6119 0.862651 17.2954C0.862651 16.5419 1.38578 15.8259 2.21218 15.6766L13.9262 13.5603L16.0419 1.84937C16.1905 1.02281 16.9062 0.5 17.6591 0.5C17.9716 0.5 18.2997 0.592625 18.5809 0.794109L28.3583 7.57838L38.1348 0.794001C38.4253 0.592719 38.7486 0.500093 39.0653 0.500093C39.8153 0.500093 40.5341 1.02286 40.6903 1.84958L42.7997 13.5594L50.8622 15.4954C46.4309 15.4954 42.3716 17 39.0528 19.4485C36.5325 16.3032 32.7059 14.25 28.3622 14.25Z" fill="#FDDA25"/>
</svg>
