<svg width="109" height="88" viewBox="0 0 109 88" fill="none" xmlns="http://www.w3.org/2000/svg">
<path fill-rule="evenodd" clip-rule="evenodd" d="M97.9274 55.8272C97.9371 55.6718 97.9642 55.5255 97.9908 55.382C98.0223 55.2117 98.0532 55.0453 98.0532 54.8724C98.0532 48.8605 93.2016 43.9974 87.4051 43.9974C85.2754 43.9974 83.3129 44.6344 81.6456 45.6964C78.6723 39.0899 72.1113 34.6345 64.45 34.6345C54.0297 34.6345 45.55 43.151 45.55 53.5128C45.55 53.7931 45.5884 54.0602 45.6264 54.3251C45.6576 54.5419 45.6885 54.7573 45.698 54.9772C37.323 55.6144 30.6995 62.5795 30.6995 71.1826C30.4105 80.1939 37.6668 87.5006 46.6105 87.5006H92.5105C101.454 87.5006 108.711 80.1956 108.711 71.1898C108.711 64.0343 104.256 58.0362 97.9274 55.8272Z" fill="#D2DAEE"/>
<path fill-rule="evenodd" clip-rule="evenodd" d="M97.9274 55.8272C97.9371 55.6718 97.9642 55.5255 97.9908 55.382C98.0223 55.2117 98.0532 55.0453 98.0532 54.8724C98.0532 48.8605 93.2016 43.9974 87.4051 43.9974C85.2754 43.9974 83.3129 44.6344 81.6456 45.6964C78.6723 39.0899 72.1113 34.6345 64.45 34.6345C54.0297 34.6345 45.55 43.151 45.55 53.5128C45.55 53.7931 45.5884 54.0602 45.6264 54.3251C45.6576 54.5419 45.6885 54.7573 45.698 54.9772C37.323 55.6144 30.6995 62.5795 30.6995 71.1826C30.4105 80.1939 37.6668 87.5006 46.6105 87.5006H92.5105C101.454 87.5006 108.711 80.1956 108.711 71.1898C108.711 64.0343 104.256 58.0362 97.9274 55.8272Z" fill="#D2DAEE"/>
<path fill-rule="evenodd" clip-rule="evenodd" d="M97.9274 55.8272C97.9371 55.6718 97.9642 55.5255 97.9908 55.382C98.0223 55.2117 98.0532 55.0453 98.0532 54.8724C98.0532 48.8605 93.2016 43.9974 87.4051 43.9974C85.2754 43.9974 83.3129 44.6344 81.6456 45.6964C78.6723 39.0899 72.1113 34.6345 64.45 34.6345C54.0297 34.6345 45.55 43.151 45.55 53.5128C45.55 53.7931 45.5884 54.0602 45.6264 54.3251C45.6576 54.5419 45.6885 54.7573 45.698 54.9772C37.323 55.6144 30.6995 62.5795 30.6995 71.1826C30.4105 80.1939 37.6668 87.5006 46.6105 87.5006H92.5105C101.454 87.5006 108.711 80.1956 108.711 71.1898C108.711 64.0343 104.256 58.0362 97.9274 55.8272Z" fill="#D2DAEE"/>
<path d="M17.0622 35.8435C17.0622 25.3322 25.5233 16.9652 35.8103 16.9652C44.695 16.9652 52.0947 23.1589 54.1197 31.4799C57.3428 29.9132 60.7178 29.0466 64.1603 29.0466C64.9378 29.0466 65.7047 29.1114 66.4688 29.186L70.5408 23.2795C71.409 22.0197 70.692 20.277 69.1935 20.0051L54.3897 17.2846L51.6897 2.23467C51.4197 0.724912 49.6985 0.00376368 48.4328 0.878012L35.9622 9.59738L23.4916 0.877842C22.226 0.00359371 20.5047 0.725082 20.2347 2.23467L17.5313 17.2846L2.58515 20.0068C1.08598 20.2787 0.369129 22.0289 1.23735 23.2863L9.89422 35.8503L1.23752 48.4007C0.369297 49.6605 1.08606 51.4033 2.58465 51.6751L17.5313 54.399L20.233 69.4507C20.5037 70.9597 22.2344 71.6817 23.4848 70.807L25.2921 69.5441C25.752 63.5714 28.6418 58.2426 33.026 54.574C23.9978 53.1416 17.0622 45.3422 17.0622 35.8435Z" fill="#FDDA25"/>
<path d="M22.4622 34.807C22.4622 42.3141 28.5068 48.4007 35.9622 48.4007C37.604 48.4007 39.1566 48.0616 40.613 47.5212C41.7945 41.8034 44.9211 36.8416 49.3154 33.343C48.5847 26.5318 42.9147 21.2132 35.9622 21.2132C28.5035 21.2132 22.4622 27.2965 22.4622 34.807Z" fill="#FDDA25"/>
</svg>
