<svg width="106" height="94" viewBox="0 0 106 94" fill="none" xmlns="http://www.w3.org/2000/svg">
<path fill-rule="evenodd" clip-rule="evenodd" d="M71.0262 27.8914C71.0262 44.962 86.6122 57.9257 103.565 54.7016C105.078 54.4109 106.117 56.1547 104.837 57.3317C98.7482 64.8008 89.7576 69.5007 79.8446 70.1138C77.8157 65.936 74.3977 62.5303 70.092 60.5776C70.1604 59.9419 70.2059 59.2834 70.2059 58.625C70.2059 49.0217 62.5096 41.1875 52.87 41.1875C50.7007 41.1875 48.3127 41.6416 46.2346 42.5044C45.2994 41.5281 44.2522 40.688 43.1812 39.916C42.9761 38.4175 42.8622 36.9189 42.8622 35.375C42.8622 16.0993 58.5393 0.5 77.8439 0.5C80.1408 0.5 82.2736 0.704346 84.401 1.09396C85.8821 1.36824 86.2467 3.36538 84.9023 4.11465C76.1486 9.00078 71.0262 18.0374 71.0262 27.8914Z" fill="#676A71"/>
<path d="M65.1824 59.0919C65.1824 61.2716 64.5443 63.2924 63.4962 65.0406C70.9701 65.6764 76.6941 71.834 76.5282 79.4447C76.5282 87.4823 70.1753 93.976 62.1089 93.976H18.523C8.86152 93.976 1.02393 86.002 0.862183 76.3745C0.862183 68.7692 5.80593 62.3427 12.6419 59.9814C12.6191 59.6181 12.5274 59.3117 12.5274 58.9484C12.5274 49.3215 20.366 41.5 30.0274 41.5C36.7904 41.5 42.4779 45.3326 45.6133 50.7128C47.7097 48.7157 50.5352 47.4669 53.6797 47.4669C59.9415 47.4669 65.1824 52.6891 65.1824 59.0919Z" fill="#D2DAEE"/>
</svg>
