<svg width="101" height="101" viewBox="0 0 101 101" fill="none" xmlns="http://www.w3.org/2000/svg">
<path fill-rule="evenodd" clip-rule="evenodd" d="M33.533 72.0802C34.5525 69.7006 37.3123 68.6019 39.6892 69.6212C41.8962 70.6564 43.1658 73.4103 41.9705 75.7873L32.7712 97.6623C32.0076 99.438 30.2775 100.5 28.4587 100.5C27.8533 100.5 27.0525 100.383 26.7966 100.113C24.4161 99.0939 23.3144 96.3361 24.3337 93.9552L33.533 72.0802ZM10.615 72.0802C11.6345 69.7006 14.3904 68.6019 16.7712 69.6212C19.1501 70.6564 20.2537 73.4103 19.0584 75.7873L9.85913 97.6623C9.09546 99.438 7.36538 100.5 5.54663 100.5C4.92945 100.5 4.30445 100.383 3.70288 100.129C1.323 99.0939 0.221242 96.34 1.41577 93.9552L10.615 72.0802ZM56.4431 72.0802C57.4626 69.7006 60.2185 68.6019 62.5994 69.6212C64.9822 70.6564 65.9197 73.4103 64.9002 75.7873L55.7009 97.6623C54.9373 99.438 53.2072 100.5 51.3884 100.5C50.7634 100.5 50.1384 100.383 49.7068 100.113C47.3263 99.0939 46.2246 96.3361 47.2439 93.9552L56.4431 72.0802ZM79.3728 72.0802C80.3962 69.7006 83.1521 68.6019 85.5291 69.6212C87.8923 70.6564 89.0056 73.4103 87.6345 75.7873L78.4353 97.6623C77.6716 99.438 75.9416 100.5 74.1228 100.5C73.6736 100.5 73.0486 100.383 72.6365 100.113C70.256 99.0939 69.1543 96.3361 70.1736 93.9552L79.3728 72.0802Z" fill="#3A76BA"/>
<path d="M81.7937 25.5488C81.8914 25.5488 81.9891 25.5 82.1111 25.5C92.4627 25.5 100.861 33.8984 100.861 44.25C100.861 54.6016 92.4627 63 81.7606 63H19.4364C9.08484 63 0.862183 54.6016 0.862183 44.25C0.862183 35.9492 6.283 28.9766 13.7764 26.5254C13.5078 25.1582 13.3611 23.791 13.3611 22.375C13.3611 10.291 23.1853 0.5 35.2361 0.5C43.6932 0.5 50.9393 5.33398 54.9236 12.3652C57.6287 8.94727 61.8533 6.75 66.6619 6.75C75.1287 6.75 82.1111 13.7324 82.1111 22.375C82.1111 23.4688 82.0135 24.5234 81.7937 25.5488Z" fill="#D2DAEE"/>
</svg>
