<svg width="101" height="101" viewBox="0 0 101 101" fill="none" xmlns="http://www.w3.org/2000/svg">
<g clip-path="url(#clip0_45_30)">
<path d="M50.8622 31.5742C40.5067 31.5742 32.288 39.9687 32.288 50.1484C32.288 60.3281 40.3349 69.0742 50.8622 69.0742C61.3895 69.0742 69.4364 60.6797 69.4364 50.5C69.4364 40.3203 61.2138 31.5742 50.8622 31.5742ZM100.335 68.2734L87.9911 50.3242L100.325 32.5488C101.562 30.7666 100.541 28.3027 98.4059 27.916L77.1169 24.0683L73.2692 2.77928C72.8835 0.644511 70.4196 -0.376973 68.6364 0.860527L50.8622 13.3691L32.913 1.03436C31.1307 -0.202363 28.6669 0.818145 28.2802 2.95311L24.6122 24.25L3.31532 28.0976C1.18114 28.4687 0.159855 30.9492 1.39657 32.5508L13.7313 50.5L1.39736 68.2754C0.160637 70.0576 1.18153 72.5215 3.3161 72.9082L24.6052 76.7558L28.4528 98.0449C28.8386 100.18 31.3024 101.201 33.0856 99.9636L50.8622 87.6289L68.6376 99.9629C70.4202 101.2 72.8856 100.179 73.2704 98.0445L77.118 76.7554L98.4071 72.9078C100.55 72.5312 101.565 70.0508 100.335 68.2734ZM50.8622 75.3242C37.0556 75.3242 26.038 64.1308 26.038 50.5C26.038 36.6933 37.2313 25.6758 50.8622 25.6758C64.493 25.6758 75.6864 36.8672 75.6864 50.5C75.6864 64.3086 64.6708 75.3242 50.8622 75.3242Z" fill="black"/>
</g>
<defs>
<clipPath id="clip0_45_30">
<rect width="100" height="100" fill="white" transform="translate(0.862183 0.5)"/>
</clipPath>
</defs>
</svg>
