<svg width="27" height="27" viewBox="0 0 27 27" fill="none" xmlns="http://www.w3.org/2000/svg">
<g clip-path="url(#clip0_48_66)">
<path d="M13.8622 8.5792C11.1698 8.5792 9.03289 10.7618 9.03289 13.4085C9.03289 16.0552 11.1251 18.3292 13.8622 18.3292C16.5993 18.3292 18.6915 16.1466 18.6915 13.4999C18.6915 10.8532 16.5536 8.5792 13.8622 8.5792ZM26.7251 18.121L23.5157 13.4542L26.7225 8.8326C27.0441 8.36922 26.7786 7.72862 26.2236 7.62807L20.6884 6.62768L19.688 1.09252C19.5877 0.537485 18.9471 0.271899 18.4835 0.593649L13.8622 3.84588L9.19539 0.638844C8.73201 0.317298 8.0914 0.58263 7.99086 1.13772L7.03719 6.67491L1.5 7.6753C0.945113 7.77178 0.679578 8.4167 1.00112 8.83311L4.20816 13.4999L1.00133 18.1215C0.679781 18.5849 0.945214 19.2255 1.5002 19.326L7.03536 20.3264L8.03575 25.8616C8.13604 26.4166 8.77664 26.6822 9.24028 26.3605L13.8622 23.1534L18.4838 26.3603C18.9473 26.6819 19.5883 26.4165 19.6883 25.8615L20.6887 20.3263L26.2239 19.3259C26.7809 19.228 27.045 18.5831 26.7251 18.121ZM13.8622 19.9542C10.2725 19.9542 7.40789 17.0439 7.40789 13.4999C7.40789 9.91018 10.3182 7.04561 13.8622 7.04561C17.4062 7.04561 20.3165 9.95537 20.3165 13.4999C20.3165 17.0901 17.4524 19.9542 13.8622 19.9542Z" fill="black"/>
</g>
<defs>
<clipPath id="clip0_48_66">
<rect width="26" height="26" fill="white" transform="translate(0.862183 0.5)"/>
</clipPath>
</defs>
</svg>
