<svg width="101" height="161" viewBox="0 0 101 161" fill="none" xmlns="http://www.w3.org/2000/svg">
<g clip-path="url(#clip0_45_48)">
<path d="M55.8622 101.406V50.5C55.8622 47.7656 53.5966 45.5 50.8622 45.5C48.1278 45.5 45.8622 47.7656 45.8622 50.5V101.406C40.0434 103.477 35.8622 108.984 35.8622 115.509C35.8622 123.791 42.5809 130.509 50.8622 130.509C59.1434 130.509 65.8622 123.791 65.8622 115.509C65.8622 108.969 61.6747 103.469 55.8622 101.406ZM85.8622 87.5312V35.5C85.8622 16.1656 70.1997 0.5 51.1434 0.5C32.0872 0.5 15.8622 16.1656 15.8622 35.5V87.5312C9.69031 95.2656 5.86218 104.875 5.86218 115.5C5.86218 140.344 26.0184 160.219 50.8622 160.219C75.7059 160.219 95.8622 140.344 95.8622 115.5C95.8622 104.875 92.0497 95.2188 85.8622 87.5312ZM50.8622 140.5C37.0716 140.5 25.8622 129.291 25.8622 115.781C25.8622 107.812 29.6903 100.506 35.8622 95.8594V35.7656C35.8622 27.4844 42.5809 20.7656 50.8622 20.7656C59.1434 20.7656 65.8622 27.4844 65.8622 35.7656V95.8594C72.0341 100.469 75.8622 107.812 75.8622 115.781C75.8622 129.281 64.6434 140.5 50.8622 140.5Z" fill="black"/>
</g>
<defs>
<clipPath id="clip0_45_48">
<rect width="100" height="160" fill="white" transform="translate(0.862183 0.5)"/>
</clipPath>
</defs>
</svg>
