<svg width="93" height="99" viewBox="0 0 93 99" fill="none" xmlns="http://www.w3.org/2000/svg">
<path d="M33.2143 10.5714C33.2143 4.73292 37.6775 0 43.1786 0H49.8214C55.3225 0 59.7857 4.73292 59.7857 10.5714V88.0952C59.7857 93.9315 55.3225 98.6667 49.8214 98.6667H43.1786C37.6775 98.6667 33.2143 93.9315 33.2143 88.0952V10.5714ZM0 52.8571C0 47.0208 4.46109 42.2857 9.96429 42.2857H16.6071C22.1083 42.2857 26.5714 47.0208 26.5714 52.8571V88.0952C26.5714 93.9315 22.1083 98.6667 16.6071 98.6667H9.96429C4.46109 98.6667 0 93.9315 0 88.0952V52.8571ZM83.0357 14.0952C88.5368 14.0952 93 18.8304 93 24.6667V88.0952C93 93.9315 88.5368 98.6667 83.0357 98.6667H76.3929C70.8917 98.6667 66.4286 93.9315 66.4286 88.0952V24.6667C66.4286 18.8304 70.8917 14.0952 76.3929 14.0952H83.0357Z" fill="black"/>
</svg>
