<svg width="27" height="23" viewBox="0 0 27 23" fill="none" xmlns="http://www.w3.org/2000/svg">
<path d="M13.2528 2.60267L13.8165 3.20562L14.4259 2.60368C16.127 0.963154 18.4833 0.216502 20.7989 0.597867C24.2977 1.17469 26.8622 4.17034 26.8622 7.68252V7.97395C26.8622 10.0591 25.9887 12.0539 24.445 13.4759L15.2688 21.9523C14.888 22.304 14.3852 22.5 13.8622 22.5C13.3391 22.5 12.8364 22.304 12.4555 21.9523L3.27886 13.4759C1.73714 12.0539 0.862183 10.0591 0.862183 7.97395V7.68252C0.862183 4.17034 3.42765 1.17469 6.92546 0.597867C9.19539 0.216502 11.5973 0.963154 13.2528 2.60267C13.2071 2.60267 13.2528 2.60318 13.2528 2.60267ZM13.8165 6.61731L11.5313 4.26581C10.4294 3.21969 8.86531 2.72326 7.32664 2.9765C5.00339 3.35988 3.29968 5.35112 3.29968 7.68252V7.97395C3.29968 9.39088 3.89433 10.7475 4.94195 11.7122L13.8622 19.9525L22.7844 11.7122C23.8305 10.7475 24.4247 9.39088 24.4247 7.97395V7.68252C24.4247 5.35112 22.7184 3.35988 20.3977 2.9765C18.8591 2.72326 17.295 3.21969 16.193 4.26581L13.8165 6.61731Z" fill="black"/>
</svg>
