<svg width="27" height="27" viewBox="0 0 27 27" fill="none" xmlns="http://www.w3.org/2000/svg">
<g clip-path="url(#clip0_48_71)">
<path d="M2.48718 10.25H18.7372C21.4255 10.25 23.6122 8.06336 23.6122 5.375C23.6122 2.68664 21.4255 0.5 18.7372 0.5H17.1122C16.2139 0.5 15.4872 1.22668 15.4872 2.125C15.4872 3.02332 16.2139 3.75 17.1122 3.75H18.7372C19.634 3.75 20.3622 4.4782 20.3622 5.375C20.3622 6.2718 19.634 7 18.7372 7H2.48718C1.58886 7 0.862183 7.72617 0.862183 8.625C0.862183 9.52383 1.58886 10.25 2.48718 10.25ZM8.98718 16.75H2.48718C1.58886 16.75 0.862183 17.4767 0.862183 18.375C0.862183 19.2733 1.58886 20 2.48718 20H8.98718C9.88398 20 10.6122 20.7282 10.6122 21.625C10.6122 22.5218 9.88398 23.25 8.98718 23.25H7.36218C6.46386 23.25 5.73718 23.9767 5.73718 24.875C5.73718 25.7733 6.46386 26.5 7.36218 26.5H8.98718C11.6755 26.5 13.8622 24.3134 13.8622 21.625C13.8622 18.9366 11.6735 16.75 8.98718 16.75ZM21.9872 11.875H2.48718C1.58886 11.875 0.862183 12.6012 0.862183 13.5C0.862183 14.3988 1.58886 15.125 2.48718 15.125H21.9872C22.884 15.125 23.6122 15.8532 23.6122 16.75C23.6122 17.6468 22.884 18.375 21.9872 18.375H20.3622C19.4639 18.375 18.7372 19.1017 18.7372 20C18.7372 20.8983 19.4639 21.625 20.3622 21.625H21.9872C24.6755 21.625 26.8622 19.4384 26.8622 16.75C26.8622 14.0616 24.6735 11.875 21.9872 11.875Z" fill="black"/>
</g>
<defs>
<clipPath id="clip0_48_71">
<rect width="26" height="26" fill="white" transform="translate(0.862183 0.5)"/>
</clipPath>
</defs>
</svg>
