<svg width="101" height="101" viewBox="0 0 101 101" fill="none" xmlns="http://www.w3.org/2000/svg">
<path d="M82.1111 25.5C81.9891 25.5 81.8914 25.5488 81.7937 25.5488C82.0135 24.5234 82.1111 23.4688 82.1111 22.375C82.1111 13.7324 75.1287 6.75 66.6619 6.75C61.8533 6.75 57.6287 8.94727 54.9236 12.3652C50.9393 5.33398 43.6932 0.5 35.2361 0.5C23.1853 0.5 13.3611 10.291 13.3611 22.375C13.3611 23.791 13.5078 25.1582 13.7764 26.5254C6.283 28.9766 0.862183 35.9492 0.862183 44.25C0.862183 54.6016 9.08484 63 19.4364 63H81.7606C92.4627 63 100.861 54.6016 100.861 44.25C100.861 33.8984 92.4627 25.5 82.1111 25.5ZM39.6893 69.6211C37.3123 68.6018 34.5525 69.7004 33.533 72.0801L24.3338 93.9551C23.3144 96.3359 24.4162 99.0938 26.7967 100.113C27.0525 100.383 27.8533 100.5 28.4588 100.5C30.2775 100.5 32.0076 99.4379 32.7713 97.6621L41.9705 75.7871C43.1658 73.4102 41.8963 70.6562 39.6893 69.6211ZM16.7713 69.6211C14.3904 68.6018 11.6346 69.7004 10.615 72.0801L1.41582 93.9551C0.221284 96.3398 1.32304 99.0938 3.70292 100.129C4.30449 100.383 4.92949 100.5 5.54667 100.5C7.36542 100.5 9.0955 99.4379 9.85917 97.6621L19.0584 75.7871C20.2537 73.4102 19.1502 70.6562 16.7713 69.6211ZM62.5994 69.6211C60.2186 68.6018 57.4627 69.7004 56.4432 72.0801L47.2439 93.9551C46.2246 96.3359 47.3263 99.0938 49.7068 100.113C50.1385 100.383 50.7635 100.5 51.3885 100.5C53.2072 100.5 54.9373 99.4379 55.701 97.6621L64.9002 75.7871C65.9197 73.4102 64.9822 70.6562 62.5994 69.6211ZM85.5291 69.6211C83.1521 68.6018 80.3963 69.7004 79.3728 72.0801L70.1736 93.9551C69.1543 96.3359 70.256 99.0938 72.6365 100.113C73.0486 100.383 73.6736 100.5 74.1228 100.5C75.9416 100.5 77.6717 99.4379 78.4353 97.6621L87.6346 75.7871C89.0057 73.4102 87.8924 70.6562 85.5291 69.6211Z" fill="black"/>
</svg>
