<svg viewBox="0 0 64 64" xmlns="http://www.w3.org/2000/svg"><g id="Unlike"><path d="M18.7483,13.9189H11.8332c.0035.0366.0215.0681.0215.1055v6.6772a1.35,1.35,0,1,1-2.6992,0V14.0244c0-.0374.0181-.0689.021-.1055H5.4558a2.4364,2.4364,0,0,0-2.4365,2.4365V46.9811a2.4365,2.4365,0,0,0,2.4365,2.4366H9.1765c-.0029-.0367-.021-.0681-.021-.1053V27.3886a1.35,1.35,0,1,1,2.6992,0V49.3124c0,.0372-.018.0686-.0215.1053h6.9151a3.0681,3.0681,0,0,0,3.0678-3.0684V16.9872A3.0681,3.0681,0,0,0,18.7483,13.9189Z"></path><path d="M61.7663,36.1782,57.4,22.0341a10.1093,10.1093,0,0,0-9.707-7.1631H35.08a13.289,13.289,0,0,0-7.4033,2.2442L24.51,19.2285v24.44h4.792a3.8784,3.8784,0,0,1,3.0537,1.5039l2.916,3.79a9.9623,9.9623,0,0,1,2.0537,6.04,3.6981,3.6981,0,0,0,3.6934,3.6933,7.09,7.09,0,0,0,6.82-9.03l-1.06-3.7266a1.7835,1.7835,0,0,1,1.7159-2.27H56.238a5.7856,5.7856,0,0,0,5.5283-7.49Z"></path></g></svg>