<svg width="129" height="116" viewBox="0 0 129 116" fill="none" xmlns="http://www.w3.org/2000/svg">
<g clip-path="url(#clip0_48_32)">
<path d="M78.7511 51.1494C77.2231 42.7827 70.0288 36.4375 61.3044 36.4375C58.5822 36.4375 55.9977 36.9092 53.6933 38.0322C49.8177 32.8213 43.5511 29.25 36.4177 29.25C24.6377 29.25 15.0822 38.7061 15.0822 50.6104C15.0822 50.7227 15.1377 50.863 15.1377 50.9753C7.00218 52.8115 0.862183 60.0889 0.862183 68.7812C0.862183 78.7202 8.80663 86.5479 18.6422 86.5479H75.5311C85.3644 86.5479 93.3111 78.5181 93.3111 68.7812C93.3066 59.9766 87.04 52.6768 78.7511 51.1494ZM127.062 50.7676C111.44 53.7549 97.0622 41.7158 97.0622 25.8809C97.0622 16.755 101.924 8.36133 109.84 3.83994C111.062 3.13804 110.746 1.28613 109.357 1.03232C107.44 0.669311 105.484 0.5 103.484 0.5C86.1777 0.5 72.1288 14.2573 71.3955 31.4736C77.34 34.142 82.12 39.0834 84.48 45.3433C92.7311 48.5439 98.7044 55.9853 100.093 64.8281C101.232 64.9404 102.327 65.17 103.493 65.17C113.411 65.17 122.484 60.6441 128.493 53.205C129.44 52.1152 128.462 50.498 127.062 50.7676ZM76.44 96.3408L69.3288 107.122C67.6966 109.6 68.3564 112.948 70.8082 114.597C71.7066 115.208 72.7289 115.5 73.5511 115.5C75.2735 115.5 76.9689 114.658 77.9955 113.099L85.1066 102.318C86.7389 99.8402 86.0791 96.4913 83.6273 94.8427C81.3733 93.1963 78.0622 93.8701 76.44 96.3408ZM55.0844 96.3408L47.9733 107.122C46.3411 109.6 47.0008 112.948 49.4526 114.597C50.3733 115.208 51.3955 115.5 52.2177 115.5C53.9402 115.5 55.6355 114.658 56.6622 113.099L63.7733 102.318C65.4055 99.8402 64.7457 96.4913 62.294 94.8427C60.04 93.1963 56.7288 93.8701 55.0844 96.3408ZM33.7511 96.3408L26.64 107.122C25.0077 109.6 25.6675 112.948 28.1193 114.597C29.04 115.208 30.0622 115.5 30.8844 115.5C32.6069 115.5 34.3022 114.658 35.3288 113.099L42.44 102.318C44.0722 99.8402 43.4124 96.4913 40.9606 94.8427C38.7066 93.1963 35.3955 93.8701 33.7511 96.3408ZM12.4244 96.3408L5.31329 107.122C3.68107 109.6 4.34085 112.948 6.79263 114.597C7.70218 115.208 8.73107 115.5 9.7444 115.5C11.4668 115.5 13.1622 114.658 14.1888 113.099L21.3 102.318C22.9322 99.8402 22.2724 96.4913 19.8206 94.8427C17.3622 93.1963 14.0644 93.8701 12.4244 96.3408Z" fill="black"/>
</g>
<defs>
<clipPath id="clip0_48_32">
<rect width="128" height="115" fill="white" transform="translate(0.862183 0.5)"/>
</clipPath>
</defs>
</svg>
