<svg width="101" height="81" viewBox="0 0 101 81" fill="none" xmlns="http://www.w3.org/2000/svg">
<g clip-path="url(#clip0_45_42)">
<path d="M40.8153 22.2344C39.1122 20.1094 36.4247 18.625 33.3622 18.625C28.1841 18.625 23.9872 22.8219 23.9872 27.8594C23.9872 31.8532 26.4966 35.2407 30.0153 36.5907C31.6747 34.7657 33.7528 33.1407 36.1591 31.9219C36.6591 28.3907 38.4559 25.0782 40.8153 22.2344ZM19.6122 27.8594C19.6122 20.2657 25.7684 14.25 33.3622 14.25C37.7059 14.25 41.5325 16.3032 44.0528 19.4485C47.3716 17 51.4309 15.4954 55.8622 15.4954L47.7997 13.5594L45.6903 1.84958C45.5341 1.02286 44.8153 0.500094 44.0653 0.500094C43.7486 0.500094 43.4253 0.592719 43.1348 0.794L33.3583 7.57838L23.5809 0.794109C23.2997 0.592625 22.9716 0.5 22.6591 0.5C21.9062 0.5 21.1905 1.02281 21.0419 1.84938L18.9262 13.5603L7.21218 15.6766C6.38578 15.8259 5.86265 16.5419 5.86265 17.2954C5.86265 17.6119 5.95517 17.935 6.15656 18.2252L12.9394 28.0018L6.15593 37.7813C5.95437 38.0626 5.86218 38.3907 5.86218 38.7032C5.86218 39.4558 6.38515 40.1716 7.21156 40.3204L18.9225 42.436L21.0381 54.1469C21.1874 54.9733 21.9033 55.4963 22.6553 55.4963C22.972 55.4963 23.2953 55.4037 23.5856 55.2022L26.6278 53.0913C26.1341 51.4757 25.8569 49.7663 25.8569 47.9913C25.8569 45.3085 26.4867 42.746 27.5975 40.4413C22.8934 38.2657 19.6122 33.5313 19.6122 27.8594ZM85.6278 35.7344C84.5536 29.9141 79.495 25.5 73.3606 25.5C71.4466 25.5 69.6294 25.9688 68.0091 26.75C65.2747 22.9797 60.8794 20.5 55.8591 20.5C47.5778 20.5 40.8575 27.2188 40.8575 35.5C40.8575 35.5782 40.8966 35.6758 40.8966 35.754C35.1747 36.7657 30.7216 41.9376 30.7216 47.8594C30.7216 54.7735 36.3075 60.3594 43.2231 60.3594H83.2231C90.2684 60.3594 95.8622 54.9063 95.8622 47.8594C95.8622 41.8594 91.4403 36.7813 85.6278 35.7344ZM87.1122 65.3594C85.9008 65.3594 84.7138 65.9457 83.9919 67.0297L78.9919 74.5297C78.5651 75.1693 78.3611 75.8921 78.3611 76.6063C78.3622 78.8438 80.0653 80.5001 82.1122 80.5001C83.3231 80.5001 84.5122 79.9141 85.2341 78.8297L90.2341 71.3297C90.6608 70.6902 90.8648 69.9674 90.8648 69.2532C90.8622 67.1563 89.1591 65.3594 87.1122 65.3594ZM72.1122 65.3594C70.9011 65.3594 69.7153 65.9457 68.9903 67.0297L63.9903 74.5297C63.5636 75.1693 63.3595 75.8921 63.3595 76.6063C63.3622 78.8438 65.0653 80.5001 66.9716 80.5001C68.1825 80.5001 69.3716 79.9141 70.0934 78.8297L75.0934 71.3297C75.5201 70.6902 75.7242 69.9674 75.7242 69.2532C75.8622 67.1563 74.1591 65.3594 72.1122 65.3594ZM57.1122 65.3594C55.9008 65.3594 54.7153 65.9457 53.9919 67.0297L48.9919 74.5297C48.5652 75.1693 48.3611 75.8921 48.3611 76.6063C48.3622 78.8438 50.0653 80.5001 51.9716 80.5001C53.1825 80.5001 54.3716 79.9141 55.095 78.8297L60.095 71.3297C60.5217 70.6902 60.7258 69.9674 60.7258 69.2532C60.8622 67.1563 59.1591 65.3594 57.1122 65.3594ZM42.1122 65.3594C40.9003 65.3594 39.7137 65.9457 38.9919 67.0297L33.9919 74.5297C33.5652 75.1693 33.3611 75.8921 33.3611 76.6063C33.3622 78.8438 35.0653 80.5001 36.9716 80.5001C38.1825 80.5001 39.3716 79.9141 40.0934 78.8297L45.0934 71.3297C45.5201 70.6902 45.7242 69.9674 45.7242 69.2532C45.8622 67.1563 44.1591 65.3594 42.1122 65.3594Z" fill="black"/>
</g>
<defs>
<clipPath id="clip0_45_42">
<rect width="100" height="80" fill="white" transform="translate(0.862183 0.5)"/>
</clipPath>
</defs>
</svg>
