<svg width="106" height="94" viewBox="0 0 106 94" fill="none" xmlns="http://www.w3.org/2000/svg">
<g clip-path="url(#clip0_48_30)">
<path d="M63.3335 64.5647C64.3817 62.8164 65.0197 60.7956 65.0197 58.6159C65.0197 52.2131 59.7788 46.9909 53.5171 46.9909C50.3726 46.9909 47.5471 48.2397 45.4507 50.2368C42.3153 44.8566 36.6278 41.024 29.8648 41.024C20.2033 41.024 12.3648 48.8455 12.3648 58.4724C12.3648 58.8357 12.4565 59.1421 12.4792 59.5054C5.6433 61.8667 0.699554 68.2932 0.699554 75.8985C0.861302 85.526 8.69889 93.5 18.3604 93.5H61.9463C70.0127 93.5 76.3656 87.0063 76.3656 78.9688C76.5314 71.358 70.8075 65.2004 63.3335 64.5647ZM103.893 54.7016C86.9403 57.9257 71.3544 44.962 71.3544 27.8914C71.3544 18.0374 76.4768 9.00078 85.2304 4.11465C86.5748 3.36538 86.2102 1.36824 84.7291 1.09396C82.6018 0.704346 80.4689 0.5 78.1721 0.5C58.8674 0.5 43.1903 16.0993 43.1903 35.375C43.1903 36.9189 43.3042 38.4175 43.5093 39.916C44.5803 40.688 45.6275 41.5281 46.5627 42.5044C48.6408 41.6416 51.0288 41.1875 53.1981 41.1875C62.8377 41.1875 70.534 49.0217 70.534 58.625C70.534 59.2834 70.4885 59.9419 70.4201 60.5776C74.7258 62.5303 78.1438 65.936 80.1727 70.1138C90.0857 69.5007 99.0764 64.8008 105.165 57.3317C106.446 56.1547 105.406 54.4109 103.893 54.7016Z" fill="black"/>
</g>
<defs>
<clipPath id="clip0_48_30">
<rect width="105" height="93" fill="white" transform="translate(0.862183 0.5)"/>
</clipPath>
</defs>
</svg>
