<svg width="123" height="123" viewBox="0 0 123 123" fill="none" xmlns="http://www.w3.org/2000/svg">
<path d="M74.3124 23.9167C74.2624 23.9167 74.2223 23.9368 74.1823 23.9368C74.2724 23.5164 74.3124 23.0839 74.3124 22.6355C74.3124 19.092 71.4496 16.2292 67.9782 16.2292C66.0066 16.2292 64.2745 17.1301 63.1654 18.5315C61.5318 15.6487 58.5609 13.6667 55.0935 13.6667C50.1526 13.6667 46.1246 17.6811 46.1246 22.6355C46.1246 23.2161 46.1848 23.7766 46.2949 24.3372C43.2226 25.3421 41 28.2009 41 31.6042C41 35.8484 44.3713 39.2917 48.6155 39.2917H74.1687C78.5566 39.2917 82 35.8484 82 31.6042C82 27.3601 78.5566 23.9167 74.3124 23.9167ZM56.9193 42.0064C55.9447 41.5885 54.8132 42.0389 54.3952 43.0146L50.6235 51.9833C50.2055 52.9595 50.6572 54.0902 51.6333 54.5082C51.7382 54.6187 52.0665 54.6667 52.3147 54.6667C53.0604 54.6667 53.7698 54.2313 54.0829 53.5032L57.8546 44.5345C58.3447 43.5599 57.8242 42.4308 56.9193 42.0064ZM47.5228 42.0064C46.5466 41.5885 45.4167 42.0389 44.9987 43.0146L41.227 51.9833C40.7372 52.9611 41.189 54.0902 42.1647 54.5146C42.4114 54.6187 42.6676 54.6667 42.9207 54.6667C43.6664 54.6667 44.3757 54.2313 44.6888 53.5032L48.4605 44.5345C48.9506 43.5599 48.4982 42.4308 47.5228 42.0064ZM66.3125 42.0064C65.3364 41.5885 64.2065 42.0389 63.7884 43.0146L60.0167 51.9833C59.5988 52.9595 60.0505 54.0902 61.0265 54.5082C61.2035 54.6187 61.4597 54.6667 61.716 54.6667C62.4617 54.6667 63.171 54.2313 63.4841 53.5032L67.2559 44.5345C67.6739 43.5599 67.2895 42.4308 66.3125 42.0064ZM75.7138 42.0064C74.7392 41.5885 73.6093 42.0389 73.1897 43.0146L69.418 51.9833C69.0001 52.9595 69.4518 54.0902 70.4278 54.5082C70.5968 54.6187 70.853 54.6667 71.0372 54.6667C71.7829 54.6667 72.4922 54.2313 72.8053 53.5032L76.577 44.5345C77.1392 43.5599 76.6828 42.4308 75.7138 42.0064Z" fill="black"/>
<g clip-path="url(#clip0_45_68)">
<path d="M16.2292 83.7083H41.8542C46.0935 83.7083 49.5417 80.2601 49.5417 76.0208C49.5417 71.7814 46.0935 68.3333 41.8542 68.3333H39.2917C37.8751 68.3333 36.7292 69.4792 36.7292 70.8958C36.7292 72.3123 37.8751 73.4583 39.2917 73.4583H41.8542C43.2684 73.4583 44.4167 74.6066 44.4167 76.0208C44.4167 77.4349 43.2684 78.5833 41.8542 78.5833H16.2292C14.8126 78.5833 13.6667 79.7284 13.6667 81.1458C13.6667 82.5631 14.8126 83.7083 16.2292 83.7083ZM26.4792 93.9583H16.2292C14.8126 93.9583 13.6667 95.1042 13.6667 96.5208C13.6667 97.9373 14.8126 99.0833 16.2292 99.0833H26.4792C27.8934 99.0833 29.0417 100.232 29.0417 101.646C29.0417 103.06 27.8934 104.208 26.4792 104.208H23.9167C22.5001 104.208 21.3542 105.354 21.3542 106.771C21.3542 108.187 22.5001 109.333 23.9167 109.333H26.4792C30.7185 109.333 34.1667 105.885 34.1667 101.646C34.1667 97.4064 30.7153 93.9583 26.4792 93.9583ZM46.9792 86.2708H16.2292C14.8126 86.2708 13.6667 87.4159 13.6667 88.8333C13.6667 90.2506 14.8126 91.3958 16.2292 91.3958H46.9792C48.3934 91.3958 49.5417 92.5441 49.5417 93.9583C49.5417 95.3724 48.3934 96.5208 46.9792 96.5208H44.4167C43.0001 96.5208 41.8542 97.6667 41.8542 99.0833C41.8542 100.5 43.0001 101.646 44.4167 101.646H46.9792C51.2185 101.646 54.6667 98.1976 54.6667 93.9583C54.6667 89.7189 51.2153 86.2708 46.9792 86.2708Z" fill="black"/>
</g>
<g clip-path="url(#clip1_45_68)">
<path d="M106.418 99.0913C105.946 99.9081 105.081 100.365 104.2 100.365C103.761 100.365 103.316 100.252 102.909 100.014L100.899 98.8418L101.33 100.467C101.602 101.492 100.989 102.546 99.9625 102.816C99.7972 102.861 99.6318 102.881 99.4689 102.881C98.6176 102.881 97.8385 102.313 97.6103 101.453L96.1897 96.0937L91.3958 93.2936L91.3958 98.9391L95.27 102.853C96.0178 103.609 96.0102 104.825 95.255 105.571C94.8792 105.946 94.3907 106.13 93.9022 106.13C93.4063 106.13 92.9101 105.94 92.5345 105.56L91.3958 104.409V106.771C91.3958 108.187 90.2475 109.333 88.8309 109.333C87.4143 109.333 86.266 108.187 86.266 106.771L86.266 104.408L85.1273 105.559C84.3808 106.315 83.1629 106.32 82.407 105.574C81.6517 104.829 81.6443 103.612 82.392 102.856L86.2662 98.9421L86.1987 93.2936L81.4044 96.0907L79.9839 101.45C79.7558 102.31 78.9765 102.878 78.1252 102.878C77.9623 102.878 77.7969 102.858 77.6316 102.813C76.605 102.543 75.9924 101.489 76.2639 100.464L76.6946 98.8388L74.6855 100.011C74.348 100.252 73.9035 100.365 73.4639 100.365C72.5822 100.365 71.723 99.909 71.2465 99.0929C70.5313 97.8717 70.9434 96.3029 72.1674 95.5894L74.2463 94.3763L72.6183 93.9352C71.5925 93.662 70.9879 92.6049 71.2657 91.5799C71.5436 90.5549 72.5958 89.9543 73.6256 90.2266L78.9036 91.66L83.7483 88.8333L78.9036 86.0065L73.6256 87.4399C73.4566 87.4849 73.2873 87.5075 73.1208 87.5075C72.2743 87.5075 71.4976 86.9444 71.2661 86.0885C70.9879 85.0616 71.5925 84.0126 72.6183 83.7323L74.2463 83.2912L72.1674 82.0747C70.9438 81.3615 70.5314 79.7924 71.2465 78.5712C71.958 77.3476 73.5288 76.9344 74.7548 77.6503L76.7639 78.8227L76.3331 77.1979C76.0616 76.1737 76.6774 75.1199 77.6304 74.85C78.7354 74.5721 79.7124 75.1903 80.0567 76.2137L81.4773 81.5726L86.1987 84.3729L86.1987 78.7274L82.395 74.81C81.6503 74.054 81.6503 72.8376 82.411 72.0921C83.1638 71.3434 84.3809 71.3538 85.1337 72.1073L86.2724 73.2581L86.1987 70.8958C86.1987 69.4792 87.347 68.3333 88.7636 68.3333C90.1802 68.3333 91.3285 69.4792 91.3285 70.8958L91.3285 73.2581L92.4673 72.1073C93.2125 71.3541 94.43 71.3441 95.1875 72.0923C95.9428 72.838 95.9502 74.0542 95.2025 74.8102L91.3283 78.7244L91.3958 84.3729L96.1901 81.5758L97.6107 76.2169C97.8825 75.1935 98.9367 74.5753 99.9634 74.8532C100.99 75.1235 101.603 76.1769 101.331 77.2027L100.9 78.8275L102.91 77.6551C104.133 76.942 105.705 77.3549 106.418 78.576C107.133 79.7972 106.721 81.366 105.497 82.0795L103.418 83.2926L105.046 83.7337C106.072 84.0115 106.677 85.0678 106.399 86.0912C106.167 86.9473 105.39 87.5102 104.544 87.5102C104.377 87.5102 104.208 87.4877 104.039 87.4426L98.6909 86.0065L93.9183 88.8333L98.7598 91.6584L104.041 90.2274C105.073 89.9543 106.122 90.5549 106.402 91.5799C106.681 92.6033 106.076 93.6596 105.05 93.9374L103.422 94.3785L105.501 95.5917C106.723 96.3045 107.131 97.8741 106.418 99.0913Z" fill="black"/>
</g>
<defs>
<clipPath id="clip0_45_68">
<rect width="41" height="41" fill="white" transform="translate(13.6667 68.3333)"/>
</clipPath>
<clipPath id="clip1_45_68">
<rect width="41" height="41" fill="white" transform="translate(68.3333 68.3333)"/>
</clipPath>
</defs>
</svg>
