<svg width="130" height="116" viewBox="0 0 130 116" fill="none" xmlns="http://www.w3.org/2000/svg">
<path fill-rule="evenodd" clip-rule="evenodd" d="M97.5288 25.8809C97.5288 41.7158 111.907 53.7549 127.529 50.7676C128.929 50.498 129.907 52.1152 128.96 53.205C122.951 60.6441 113.878 65.17 103.96 65.17C103.19 65.17 102.452 65.07 101.711 64.9697C101.329 64.9181 100.947 64.8663 100.56 64.8281C99.1711 55.9853 93.1977 48.5439 84.9466 45.3433C82.5866 39.0834 77.8066 34.142 71.8622 31.4736C72.5955 14.2573 86.6444 0.5 103.951 0.5C105.951 0.5 107.907 0.669311 109.824 1.03232C111.213 1.28613 111.529 3.13804 110.307 3.83994C102.391 8.36133 97.5288 16.755 97.5288 25.8809Z" fill="#676A71"/>
<path fill-rule="evenodd" clip-rule="evenodd" d="M61.3044 35.6875C70.0288 35.6875 77.2231 42.0327 78.7511 50.3994C87.04 51.9268 93.3066 59.2266 93.3111 68.0312C93.3111 77.7681 85.3644 85.7979 75.5311 85.7979H18.6422C8.80663 85.7979 0.862183 77.9702 0.862183 68.0312C0.862183 59.3389 7.00218 52.0615 15.1377 50.2253C15.1377 50.1692 15.1238 50.106 15.11 50.0428C15.0961 49.9797 15.0822 49.9165 15.0822 49.8604C15.0822 37.9561 24.6377 28.5 36.4177 28.5C43.5511 28.5 49.8177 32.0713 53.6933 37.2822C55.9977 36.1592 58.5822 35.6875 61.3044 35.6875Z" fill="#D2DAEE"/>
<path d="M76.8846 95.8992L69.7735 106.68C68.1413 109.158 68.8011 112.507 71.2528 114.155C72.1513 114.766 73.1735 115.058 73.9957 115.058C75.7182 115.058 77.4135 114.216 78.4402 112.657L85.5513 101.876C87.1835 99.3987 86.5237 96.0497 84.072 94.4011C81.818 92.7547 78.5069 93.4285 76.8846 95.8992Z" fill="#3A76BA"/>
<path d="M55.5291 95.8992L48.418 106.68C46.7857 109.158 47.4455 112.507 49.8973 114.155C50.818 114.766 51.8402 115.058 52.6624 115.058C54.3848 115.058 56.0802 114.216 57.1068 112.657L64.218 101.876C65.8502 99.3987 65.1904 96.0497 62.7386 94.4011C60.4846 92.7547 57.1735 93.4285 55.5291 95.8992Z" fill="#3A76BA"/>
<path d="M34.1957 95.8992L27.0846 106.68C25.4524 109.158 26.1122 112.507 28.564 114.155C29.4846 114.766 30.5068 115.058 31.3291 115.058C33.0515 115.058 34.7468 114.216 35.7735 112.657L42.8846 101.876C44.5168 99.3987 43.8571 96.0497 41.4053 94.4011C39.1513 92.7547 35.8402 93.4285 34.1957 95.8992Z" fill="#3A76BA"/>
<path d="M12.8691 95.8992L5.75796 106.68C4.12574 109.158 4.78551 112.507 7.23729 114.155C8.14685 114.766 9.17574 115.058 10.1891 115.058C11.9115 115.058 13.6068 114.216 14.6335 112.657L21.7446 101.876C23.3768 99.3987 22.7171 96.0497 20.2653 94.4011C17.8068 92.7547 14.5091 93.4285 12.8691 95.8992Z" fill="#3A76BA"/>
</svg>
