<svg width="27" height="27" viewBox="0 0 27 27" fill="none" xmlns="http://www.w3.org/2000/svg">
<g clip-path="url(#clip0_48_73)">
<path d="M25.0138 20.0051C24.7141 20.523 24.1657 20.8125 23.6071 20.8125C23.3284 20.8125 23.0465 20.7411 22.788 20.5903L21.5139 19.8469L21.7871 20.8772C21.9594 21.5278 21.5709 22.196 20.9197 22.3672C20.8149 22.3957 20.71 22.4084 20.6067 22.4084C20.0669 22.4084 19.5728 22.0482 19.4281 21.5025L18.5272 18.1042L15.4872 16.3285L15.4872 19.9086L17.944 22.3908C18.4182 22.8701 18.4134 23.641 17.9345 24.1143C17.6962 24.352 17.3864 24.4688 17.0766 24.4688C16.7622 24.4688 16.4475 24.3481 16.2093 24.1069L15.4872 23.3772V24.875C15.4872 25.7733 14.759 26.5 13.8607 26.5C12.9623 26.5 12.2341 25.7733 12.2341 24.875L12.2341 23.377L11.512 24.1067C11.0386 24.586 10.2664 24.5891 9.78699 24.1162C9.30802 23.6433 9.30329 22.8721 9.77746 22.3927L12.2343 19.9105L12.1915 16.3285L9.15121 18.1023L8.25036 21.5006C8.10573 22.0465 7.61153 22.4065 7.07172 22.4065C6.96838 22.4065 6.86352 22.3938 6.75871 22.3653C6.10769 22.1939 5.71921 21.5258 5.89136 20.8753L6.16452 19.845L4.89041 20.5884C4.67637 20.7414 4.39454 20.8125 4.11575 20.8125C3.55664 20.8125 3.01176 20.5237 2.70961 20.0061C2.25604 19.2317 2.51741 18.2369 3.2936 17.7844L4.61188 17.0151L3.5795 16.7354C2.92899 16.5621 2.54559 15.8918 2.7218 15.2418C2.89801 14.5918 3.56528 14.2109 4.21832 14.3836L7.56532 15.2926L10.6376 13.5L7.56532 11.7074L4.21832 12.6164C4.11112 12.645 4.00377 12.6593 3.89815 12.6593C3.36139 12.6593 2.86881 12.3022 2.72205 11.7594C2.54559 11.1082 2.92899 10.443 3.5795 10.2652L4.61188 9.98553L3.2936 9.21406C2.51766 8.7618 2.25614 7.7668 2.70961 6.99238C3.1608 6.21645 4.15688 5.95441 4.93434 6.4084L6.20844 7.15184L5.93524 6.12148C5.76309 5.47199 6.1536 4.80371 6.75789 4.63258C7.45868 4.45637 8.07821 4.8484 8.29657 5.49738L9.19743 8.89566L12.1915 10.6715L12.1915 7.09141L9.77938 4.60719C9.30711 4.12781 9.30711 3.35645 9.78954 2.88367C10.2669 2.40887 11.0388 2.41547 11.5161 2.89332L12.2382 3.62305L12.1915 2.125C12.1915 1.22668 12.9197 0.5 13.818 0.5C14.7163 0.5 15.4445 1.22668 15.4445 2.125L15.4445 3.62305L16.1667 2.89332C16.6393 2.41567 17.4113 2.40932 17.8917 2.8838C18.3707 3.35667 18.3754 4.12794 17.9012 4.60731L15.4444 7.0895L15.4872 10.6715L18.5275 8.8977L19.4283 5.49941C19.6007 4.85043 20.2693 4.4584 20.9203 4.63461C21.5713 4.806 21.9598 5.47402 21.7876 6.12453L21.5145 7.15488L22.7886 6.41145C23.5645 5.95919 24.5613 6.22102 25.0133 6.99543C25.4669 7.76984 25.2055 8.76465 24.4293 9.21711L23.111 9.98645L24.1434 10.2661C24.7939 10.4423 25.1778 11.1122 25.0011 11.7611C24.8541 12.304 24.3618 12.661 23.825 12.661C23.7194 12.661 23.6121 12.6467 23.5048 12.6181L20.1134 11.7074L17.0868 13.5L20.157 15.2916L23.5061 14.3841C24.1606 14.2109 24.8259 14.5918 25.0036 15.2418C25.18 15.8908 24.7963 16.5606 24.1459 16.7368L23.1135 17.0165L24.4318 17.7858C25.2067 18.2379 25.4657 19.2332 25.0138 20.0051Z" fill="black"/>
</g>
<defs>
<clipPath id="clip0_48_73">
<rect width="26" height="26" fill="white" transform="translate(0.862183 0.5)"/>
</clipPath>
</defs>
</svg>
