<svg width="101" height="101" viewBox="0 0 101 101" fill="none" xmlns="http://www.w3.org/2000/svg">
<g clip-path="url(#clip0_45_1925)">
<path d="M93.7528 75.5195C92.6005 77.5117 90.4911 78.625 88.3426 78.625C87.2708 78.625 86.1864 78.3504 85.1922 77.7705L80.2919 74.9111L81.3424 78.874C82.0051 81.376 80.5112 83.9463 78.0065 84.6045C77.6034 84.7144 77.2001 84.7632 76.8026 84.7632C74.7264 84.7632 72.826 83.3776 72.2694 81.2788L68.8046 68.2085L57.1122 61.3789L57.1122 75.1484L66.5614 84.6953C68.3853 86.5387 68.3669 89.5039 66.5248 91.3242C65.6083 92.2383 64.4169 92.6875 63.2255 92.6875C62.0159 92.6875 60.8055 92.2236 59.8895 91.2959L57.1122 88.4893V94.25C57.1122 97.7051 54.3114 100.5 50.8563 100.5C47.4012 100.5 44.6005 97.7051 44.6005 94.25L44.6004 88.4883L41.8231 91.2949C40.0024 93.1383 37.0321 93.1504 35.1883 91.3315C33.3461 89.5128 33.328 86.5464 35.1517 84.7026L44.6009 75.1558L44.4364 61.3789L32.743 68.2012L29.2782 81.2715C28.7219 83.3711 26.8212 84.7559 24.745 84.7559C24.3475 84.7559 23.9442 84.707 23.5411 84.5972C21.0372 83.938 19.543 81.3687 20.2051 78.8667L21.2557 74.9038L16.3553 77.7632C15.5321 78.3516 14.4481 78.625 13.3758 78.625C11.2255 78.625 9.12976 77.5141 7.96765 75.5234C6.22312 72.5449 7.22839 68.7188 10.2137 66.9785L15.2841 64.0195L11.3133 62.9438C8.8114 62.2773 7.33679 59.6992 8.01452 57.1992C8.69226 54.6992 11.2587 53.2344 13.7704 53.8984L26.6434 57.3945L38.4598 50.5L26.6434 43.6055L13.7704 47.1016C13.3581 47.2114 12.9452 47.2664 12.5389 47.2664C10.4745 47.2664 8.57995 45.8931 8.0155 43.8054C7.33679 41.3008 8.8114 38.7422 11.3133 38.0586L15.2841 36.9828L10.2137 34.0156C7.22937 32.2762 6.22351 28.4492 7.96765 25.4707C9.703 22.4863 13.5341 21.4785 16.5243 23.2246L21.4247 26.084L20.3739 22.1211C19.7118 19.623 21.2137 17.0527 23.538 16.3945C26.2333 15.7168 28.6161 17.2246 29.4559 19.7207L32.9208 32.791L44.4364 39.6211L44.4364 25.8516L35.1591 16.2969C33.3426 14.4531 33.3426 11.4863 35.1981 9.66797C37.034 7.8418 40.0028 7.86719 41.8387 9.70508L44.6161 12.5117L44.4364 6.75C44.4364 3.29492 47.2372 0.5 50.6923 0.5C54.1473 0.5 56.9481 3.29492 56.9481 6.75L56.9481 12.5117L59.7255 9.70508C61.5433 7.86797 64.5126 7.84355 66.3603 9.66846C68.2024 11.4872 68.2206 14.4536 66.3969 16.2974L56.9477 25.8442L57.1122 39.6211L68.8055 32.7988L72.2704 19.7285C72.9335 17.2324 75.5047 15.7246 78.0087 16.4023C80.5126 17.0615 82.0067 19.6309 81.3446 22.1328L80.294 26.0957L85.1944 23.2363C88.1788 21.4969 92.0128 22.5039 93.751 25.4824C95.4956 28.4609 94.4903 32.2871 91.5049 34.0273L86.4346 36.9863L90.4053 38.0621C92.9073 38.7396 94.3839 41.316 93.7042 43.8121C93.1387 45.9 91.2452 47.273 89.1807 47.273C88.7745 47.273 88.3618 47.2181 87.9493 47.1082L74.9051 43.6055L63.2645 50.5L75.0731 57.3906L87.954 53.9004C90.4715 53.2344 93.0301 54.6992 93.7137 57.1992C94.3921 59.6953 92.9165 62.2715 90.4149 62.9492L86.4442 64.025L91.5145 66.984C94.495 68.7227 95.4911 72.5508 93.7528 75.5195Z" fill="#D2DAEE"/>
</g>
<defs>
<clipPath id="clip0_45_1925">
<rect width="100" height="100" fill="white" transform="translate(0.862183 0.5)"/>
</clipPath>
</defs>
</svg>
