<svg width="101" height="101" viewBox="0 0 101 101" fill="none" xmlns="http://www.w3.org/2000/svg">
<g clip-path="url(#clip0_45_32)">
<path d="M32.1122 63.5664V59.875C32.1122 58.1758 30.7059 56.75 28.9872 56.75C27.2684 56.75 25.8622 58.1758 25.8622 59.875V63.5625C22.2294 64.8555 19.6122 68.293 19.6122 72.375C19.6122 77.5508 23.8114 81.75 28.9872 81.75C34.163 81.75 38.3622 77.5508 38.3622 72.375C38.3622 68.293 35.745 64.8555 32.1122 63.5664ZM50.8622 22.375C50.8622 10.2891 41.0712 0.5 28.9872 0.5C16.9032 0.5 7.11218 10.291 7.11218 22.375V54.8945C3.25476 59.7285 0.862183 65.7344 0.862183 72.375C0.862183 87.9023 13.4598 100.5 28.9872 100.5C44.5145 100.5 57.1122 87.9023 57.1122 72.375C57.1122 65.9102 54.7196 59.7031 50.8622 54.8945V22.375ZM28.9872 88C20.368 88 13.3622 80.9922 13.3622 72.375C13.3622 67.3945 15.7548 62.8281 19.6122 59.9238V22.3652C19.6122 17.1895 23.8114 12.9902 28.9872 12.9902C34.163 12.9902 38.3622 17.1895 38.3622 22.3652V59.8848C42.2196 62.7656 44.6122 67.3809 44.6122 72.3613C44.6122 80.9883 37.6005 88 28.9872 88ZM82.1122 0.5C71.7841 0.5 63.3622 8.92383 63.3622 19.25C63.3622 29.5762 71.786 38 82.1122 38C92.4384 38 100.862 29.5762 100.862 19.25C100.862 8.92383 92.4442 0.5 82.1122 0.5ZM82.1122 25.5C78.6454 25.5 75.8622 22.7168 75.8622 19.25C75.8622 15.7832 78.6454 13 82.1122 13C85.579 13 88.3622 15.7832 88.3622 19.25C88.3622 22.7168 85.5887 25.5 82.1122 25.5Z" fill="black"/>
</g>
<defs>
<clipPath id="clip0_45_32">
<rect width="100" height="100" fill="white" transform="translate(0.862183 0.5)"/>
</clipPath>
</defs>
</svg>
