<svg width="27" height="27" viewBox="0 0 27 27" fill="none" xmlns="http://www.w3.org/2000/svg">
<path d="M21.9871 7C21.9554 7 21.93 7.0127 21.9046 7.0127C21.9617 6.74609 21.9871 6.47188 21.9871 6.1875C21.9871 3.94043 20.1717 2.125 17.9703 2.125C16.72 2.125 15.6216 2.69629 14.9183 3.58496C13.8824 1.75684 11.9984 0.5 9.7995 0.5C6.66627 0.5 4.11194 3.04566 4.11194 6.1875C4.11194 6.55566 4.15009 6.91113 4.2199 7.2666C2.27161 7.90391 0.862183 9.7168 0.862183 11.875C0.862183 14.5664 3.0001 16.75 5.69153 16.75H21.896C24.6786 16.75 26.8622 14.5664 26.8622 11.875C26.8622 9.18359 24.6786 7 21.9871 7ZM10.9573 18.4715C10.3393 18.2065 9.62177 18.4921 9.35669 19.1108L6.96486 24.7983C6.69983 25.4173 6.98629 26.1344 7.60522 26.3995C7.67175 26.4695 7.87995 26.5 8.03737 26.5C8.51025 26.5 8.96008 26.2239 9.15864 25.7621L11.5505 20.0746C11.8612 19.4566 11.5312 18.7406 10.9573 18.4715ZM4.99859 18.4715C4.37956 18.2065 3.66303 18.4921 3.39795 19.1108L1.00613 24.7983C0.695547 25.4184 0.982007 26.1344 1.60078 26.4035C1.75719 26.4695 1.91969 26.5 2.08016 26.5C2.55304 26.5 3.00287 26.2239 3.20143 25.7621L5.59325 20.0746C5.90403 19.4566 5.61711 18.7406 4.99859 18.4715ZM16.914 18.4715C16.295 18.2065 15.5785 18.4921 15.3134 19.1108L12.9216 24.7983C12.6565 25.4173 12.943 26.1344 13.5619 26.3995C13.6742 26.4695 13.8367 26.5 13.9992 26.5C14.472 26.5 14.9219 26.2239 15.1204 25.7621L17.5122 20.0746C17.7773 19.4566 17.5336 18.7406 16.914 18.4715ZM22.8758 18.4715C22.2578 18.2065 21.5413 18.4921 21.2752 19.1108L18.8833 24.7983C18.6183 25.4173 18.9048 26.1344 19.5237 26.3995C19.6309 26.4695 19.7934 26.5 19.9102 26.5C20.383 26.5 20.8329 26.2239 21.0314 25.7621L23.4232 20.0746C23.7797 19.4566 23.4903 18.7406 22.8758 18.4715Z" fill="black"/>
</svg>
