<svg width="27" height="23" viewBox="0 0 27 23" fill="none" xmlns="http://www.w3.org/2000/svg">
<path d="M0.862183 7.97394V7.68252C0.862183 4.17034 3.42765 1.17468 6.92546 0.597862C9.19539 0.216497 11.5973 0.963149 13.2528 2.60367L13.8622 3.20562L14.4259 2.60367C16.127 0.963149 18.4833 0.216497 20.7989 0.597862C24.2977 1.17468 26.8622 4.17034 26.8622 7.68252V7.97394C26.8622 10.0591 25.9887 12.0539 24.445 13.4759L15.2688 21.9523C14.888 22.304 14.3852 22.5 13.8622 22.5C13.3391 22.5 12.8364 22.304 12.4555 21.9523L3.27886 13.4759C1.73714 12.0539 0.862183 10.0591 0.862183 7.97394Z" fill="black"/>
</svg>
