<svg width="98" height="98" viewBox="0 0 98 98" fill="none" xmlns="http://www.w3.org/2000/svg">
<g clip-path="url(#clip0_48_2003)">
<path d="M96.909 79.8164L56.082 10.1445C52.9563 4.78516 45.0685 4.78516 41.9218 10.1445L1.11394 79.8164C-2.02703 85.1566 1.88512 91.875 8.18066 91.875H89.8346C96.105 91.875 100.029 85.1758 96.909 79.8164ZM44.4062 32.1562C44.4062 29.6201 46.4638 27.5625 49 27.5625C51.5361 27.5625 53.5937 29.6297 53.5937 32.1562V56.6562C53.5937 59.1924 51.5361 61.25 49.1722 61.25C46.8084 61.25 44.4062 59.202 44.4062 56.6562V32.1562ZM49 79.625C45.6772 79.625 42.9822 76.93 42.9822 73.6072C42.9822 70.2844 45.6752 67.5894 49 67.5894C52.3247 67.5894 55.0178 70.2844 55.0178 73.6072C55.0101 76.9262 52.3304 79.625 49 79.625Z" fill="black"/>
</g>
<defs>
<clipPath id="clip0_48_2003">
<rect width="98" height="98" fill="white"/>
</clipPath>
</defs>
</svg>
