<svg width="103" height="103" viewBox="0 0 103 103" fill="none" xmlns="http://www.w3.org/2000/svg">
<g clip-path="url(#clip0_66_532)">
<path d="M7.23718 38.75H70.9872C81.5338 38.75 90.1122 30.1716 90.1122 19.625C90.1122 9.07836 81.5338 0.5 70.9872 0.5H64.6122C61.088 0.5 58.2372 3.35082 58.2372 6.875C58.2372 10.3992 61.088 13.25 64.6122 13.25H70.9872C74.5054 13.25 77.3622 16.1068 77.3622 19.625C77.3622 23.1432 74.5054 26 70.9872 26H7.23718C3.713 26 0.862183 28.8488 0.862183 32.375C0.862183 35.9012 3.713 38.75 7.23718 38.75ZM32.7372 64.25H7.23718C3.713 64.25 0.862183 67.1008 0.862183 70.625C0.862183 74.1492 3.713 77 7.23718 77H32.7372C36.2554 77 39.1122 79.8568 39.1122 83.375C39.1122 86.8932 36.2554 89.75 32.7372 89.75H26.3622C22.838 89.75 19.9872 92.6008 19.9872 96.125C19.9872 99.6492 22.838 102.5 26.3622 102.5H32.7372C43.2838 102.5 51.8622 93.9216 51.8622 83.375C51.8622 72.8284 43.2759 64.25 32.7372 64.25ZM83.7372 45.125H7.23718C3.713 45.125 0.862183 47.9738 0.862183 51.5C0.862183 55.0262 3.713 57.875 7.23718 57.875H83.7372C87.2554 57.875 90.1122 60.7318 90.1122 64.25C90.1122 67.7682 87.2554 70.625 83.7372 70.625H77.3622C73.838 70.625 70.9872 73.4758 70.9872 77C70.9872 80.5242 73.838 83.375 77.3622 83.375H83.7372C94.2838 83.375 102.862 74.7966 102.862 64.25C102.862 53.7034 94.2759 45.125 83.7372 45.125Z" fill="#D2DAEE"/>
</g>
<defs>
<clipPath id="clip0_66_532">
<rect width="102" height="102" fill="white" transform="translate(0.862183 0.5)"/>
</clipPath>
</defs>
</svg>
